<?xml version="1.0" encoding="UTF-8" standalone="no"?>
<!DOCTYPE svg PUBLIC "-//W3C//DTD SVG 1.1//EN"
 "http://www.w3.org/Graphics/SVG/1.1/DTD/svg11.dtd">
<!-- Generated by graphviz version 14.1.1 (20251213.1925)
 -->
<!-- Title: SimplePaths Pages: 1 -->
<svg width="1272pt" height="783pt"
 viewBox="0.00 0.00 1272.00 783.00" xmlns="http://www.w3.org/2000/svg" xmlns:xlink="http://www.w3.org/1999/xlink">
<g id="graph0" class="graph" transform="scale(1 1) rotate(0) translate(4 779)">
<title>SimplePaths</title>
<polygon fill="white" stroke="none" points="-4,4 -4,-779 1267.5,-779 1267.5,4 -4,4"/>
<g id="clust1" class="cluster">
<title>cluster_legend</title>
<path fill="#fafafa" stroke="black" d="M34.25,-8C34.25,-8 130.75,-8 130.75,-8 136.75,-8 142.75,-14 142.75,-20 142.75,-20 142.75,-233 142.75,-233 142.75,-239 136.75,-245 130.75,-245 130.75,-245 34.25,-245 34.25,-245 28.25,-245 22.25,-239 22.25,-233 22.25,-233 22.25,-20 22.25,-20 22.25,-14 28.25,-8 34.25,-8"/>
<text xml:space="preserve" text-anchor="middle" x="82.5" y="-227.7" font-family="Helvetica,sans-Serif" font-size="14.00">Legend</text>
</g>
<g id="clust2" class="cluster">
<title>cluster_path1</title>
<path fill="#e1f5fe" stroke="black" d="M59.5,-253C59.5,-253 1243.5,-253 1243.5,-253 1249.5,-253 1255.5,-259 1255.5,-265 1255.5,-265 1255.5,-374 1255.5,-374 1255.5,-380 1249.5,-386 1243.5,-386 1243.5,-386 59.5,-386 59.5,-386 53.5,-386 47.5,-380 47.5,-374 47.5,-374 47.5,-265 47.5,-265 47.5,-259 53.5,-253 59.5,-253"/>
<text xml:space="preserve" text-anchor="middle" x="651.5" y="-368.7" font-family="Helvetica,sans-Serif" font-size="14.00">Path 1: WITH Adaptive Traces</text>
</g>
<g id="clust3" class="cluster">
<title>cluster_path2</title>
<path fill="#eceff1" stroke="black" d="M59.5,-394C59.5,-394 1011.5,-394 1011.5,-394 1017.5,-394 1023.5,-400 1023.5,-406 1023.5,-406 1023.5,-515 1023.5,-515 1023.5,-521 1017.5,-527 1011.5,-527 1011.5,-527 59.5,-527 59.5,-527 53.5,-527 47.5,-521 47.5,-515 47.5,-515 47.5,-406 47.5,-406 47.5,-400 53.5,-394 59.5,-394"/>
<text xml:space="preserve" text-anchor="middle" x="535.5" y="-509.7" font-family="Helvetica,sans-Serif" font-size="14.00">Path 2: WITHOUT Adaptive Traces</text>
</g>
<g id="clust4" class="cluster">
<title>cluster_path3</title>
<path fill="#f3e5f5" stroke="black" d="M53.75,-535C53.75,-535 739.25,-535 739.25,-535 745.25,-535 751.25,-541 751.25,-547 751.25,-547 751.25,-670 751.25,-670 751.25,-676 745.25,-682 739.25,-682 739.25,-682 53.75,-682 53.75,-682 47.75,-682 41.75,-676 41.75,-670 41.75,-670 41.75,-547 41.75,-547 41.75,-541 47.75,-535 53.75,-535"/>
<text xml:space="preserve" text-anchor="middle" x="396.5" y="-664.7" font-family="Helvetica,sans-Serif" font-size="14.00">Path 3: Query</text>
</g>
<g id="clust5" class="cluster">
<title>cluster_path4</title>
<path fill="#fff8e1" stroke="black" d="M20,-690C20,-690 624.75,-690 624.75,-690 630.75,-690 636.75,-696 636.75,-702 636.75,-702 636.75,-755 636.75,-755 636.75,-761 630.75,-767 624.75,-767 624.75,-767 20,-767 20,-767 14,-767 8,-761 8,-755 8,-755 8,-702 8,-702 8,-696 14,-690 20,-690"/>
<text xml:space="preserve" text-anchor="middle" x="322.38" y="-749.7" font-family="Helvetica,sans-Serif" font-size="14.00">Path 4: Backend Work</text>
</g>
<!-- l1 -->
<g id="node1" class="node">
<title>l1</title>
<path fill="#4fc3f7" stroke="black" d="M122.75,-52C122.75,-52 42.25,-52 42.25,-52 36.25,-52 30.25,-46 30.25,-40 30.25,-40 30.25,-28 30.25,-28 30.25,-22 36.25,-16 42.25,-16 42.25,-16 122.75,-16 122.75,-16 128.75,-16 134.75,-22 134.75,-28 134.75,-28 134.75,-40 134.75,-40 134.75,-46 128.75,-52 122.75,-52"/>
<text xml:space="preserve" text-anchor="middle" x="82.5" y="-28.2" font-family="Helvetica,sans-Serif" font-size="14.00">Sampling Path</text>
</g>
<!-- l2 -->
<g id="node2" class="node">
<title>l2</title>
<path fill="#b0bec5" stroke="black" d="M118.62,-106C118.62,-106 46.38,-106 46.38,-106 40.38,-106 34.38,-100 34.38,-94 34.38,-94 34.38,-82 34.38,-82 34.38,-76 40.38,-70 46.38,-70 46.38,-70 118.62,-70 118.62,-70 124.62,-70 130.62,-76 130.62,-82 130.62,-82 130.62,-94 130.62,-94 130.62,-100 124.62,-106 118.62,-106"/>
<text xml:space="preserve" text-anchor="middle" x="82.5" y="-82.2" font-family="Helvetica,sans-Serif" font-size="14.00">Pass&#45;through</text>
</g>
<!-- l3 -->
<g id="node3" class="node">
<title>l3</title>
<path fill="#ce93d8" stroke="black" d="M113,-160C113,-160 52,-160 52,-160 46,-160 40,-154 40,-148 40,-148 40,-136 40,-136 40,-130 46,-124 52,-124 52,-124 113,-124 113,-124 119,-124 125,-130 125,-136 125,-136 125,-148 125,-148 125,-154 119,-160 113,-160"/>
<text xml:space="preserve" text-anchor="middle" x="82.5" y="-136.2" font-family="Helvetica,sans-Serif" font-size="14.00">Query Path</text>
</g>
<!-- l4 -->
<g id="node4" class="node">
<title>l4</title>
<path fill="#ffcc80" stroke="black" d="M122.38,-214C122.38,-214 42.62,-214 42.62,-214 36.62,-214 30.62,-208 30.62,-202 30.62,-202 30.62,-190 30.62,-190 30.62,-184 36.62,-178 42.62,-178 42.62,-178 122.38,-178 122.38,-178 128.38,-178 134.38,-184 134.38,-190 134.38,-190 134.38,-202 134.38,-202 134.38,-208 128.38,-214 122.38,-214"/>
<text xml:space="preserve" text-anchor="middle" x="82.5" y="-190.2" font-family="Helvetica,sans-Serif" font-size="14.00">Backend Work</text>
</g>
<!-- p1_app -->
<g id="node5" class="node">
<title>p1_app</title>
<path fill="#e3f2fd" stroke="black" d="M97.5,-322C97.5,-322 67.5,-322 67.5,-322 61.5,-322 55.5,-316 55.5,-310 55.5,-310 55.5,-298 55.5,-298 55.5,-292 61.5,-286 67.5,-286 67.5,-286 97.5,-286 97.5,-286 103.5,-286 109.5,-292 109.5,-298 109.5,-298 109.5,-310 109.5,-310 109.5,-316 103.5,-322 97.5,-322"/>
<text xml:space="preserve" text-anchor="middle" x="82.5" y="-298.2" font-family="Helvetica,sans-Serif" font-size="14.00">App</text>
</g>
<!-- p1_gw -->
<g id="node6" class="node">
<title>p1_gw</title>
<path fill="#a5d6a7" stroke="black" d="M266.88,-323C266.88,-323 220.88,-323 220.88,-323 214.88,-323 208.88,-317 208.88,-311 208.88,-311 208.88,-297 208.88,-297 208.88,-291 214.88,-285 220.88,-285 220.88,-285 266.88,-285 266.88,-285 272.88,-285 278.88,-291 278.88,-297 278.88,-297 278.88,-311 278.88,-311 278.88,-317 272.88,-323 266.88,-323"/>
<text xml:space="preserve" text-anchor="middle" x="243.88" y="-305.7" font-family="Helvetica,sans-Serif" font-size="14.00">Gateway</text>
<text xml:space="preserve" text-anchor="middle" x="243.88" y="-290.7" font-family="Helvetica,sans-Serif" font-size="14.00">3+</text>
</g>
<!-- p1_app&#45;&gt;p1_gw -->
<g id="edge1" class="edge">
<title>p1_app&#45;&gt;p1_gw</title>
<path fill="none" stroke="black" d="M109.82,-304C133.52,-304 168.87,-304 197.19,-304"/>
<polygon fill="black" stroke="black" points="196.92,-307.5 206.92,-304 196.92,-300.5 196.92,-307.5"/>
</g>
<!-- p1_sgw -->
<g id="node7" class="node">
<title>p1_sgw</title>
<path fill="#4fc3f7" stroke="black" d="M430.12,-323C430.12,-323 358.62,-323 358.62,-323 352.62,-323 346.62,-317 346.62,-311 346.62,-311 346.62,-297 346.62,-297 346.62,-291 352.62,-285 358.62,-285 358.62,-285 430.12,-285 430.12,-285 436.12,-285 442.12,-291 442.12,-297 442.12,-297 442.12,-311 442.12,-311 442.12,-317 436.12,-323 430.12,-323"/>
<text xml:space="preserve" text-anchor="middle" x="394.38" y="-305.7" font-family="Helvetica,sans-Serif" font-size="14.00">Sampler GW</text>
<text xml:space="preserve" text-anchor="middle" x="394.38" y="-290.7" font-family="Helvetica,sans-Serif" font-size="14.00">3+</text>
</g>
<!-- p1_gw&#45;&gt;p1_sgw -->
<g id="edge2" class="edge">
<title>p1_gw&#45;&gt;p1_sgw</title>
<path fill="none" stroke="black" d="M279.32,-304C295.78,-304 315.95,-304 334.72,-304"/>
<polygon fill="black" stroke="black" points="334.67,-307.5 344.67,-304 334.67,-300.5 334.67,-307.5"/>
</g>
<!-- p1_kafka_at -->
<g id="node8" class="node">
<title>p1_kafka_at</title>
<path fill="#81d4fa" stroke="black" d="M626.12,-325.38C626.12,-328 610.27,-330.12 590.75,-330.12 571.23,-330.12 555.38,-328 555.38,-325.38 555.38,-325.38 555.38,-282.62 555.38,-282.62 555.38,-280 571.23,-277.88 590.75,-277.88 610.27,-277.88 626.12,-280 626.12,-282.62 626.12,-282.62 626.12,-325.38 626.12,-325.38"/>
<path fill="none" stroke="black" d="M626.12,-325.38C626.12,-322.75 610.27,-320.62 590.75,-320.62 571.23,-320.62 555.38,-322.75 555.38,-325.38"/>
<text xml:space="preserve" text-anchor="middle" x="590.75" y="-305.7" font-family="Helvetica,sans-Serif" font-size="14.00">Kafka AT</text>
<text xml:space="preserve" text-anchor="middle" x="590.75" y="-290.7" font-family="Helvetica,sans-Serif" font-size="14.00">N parts</text>
</g>
<!-- p1_sgw&#45;&gt;p1_kafka_at -->
<g id="edge3" class="edge">
<title>p1_sgw&#45;&gt;p1_kafka_at</title>
<path fill="none" stroke="black" d="M442.43,-304C473.21,-304 513.24,-304 543.8,-304"/>
<polygon fill="black" stroke="black" points="543.5,-307.5 553.5,-304 543.5,-300.5 543.5,-307.5"/>
<text xml:space="preserve" text-anchor="middle" x="501" y="-323.7" font-family="Times,serif" font-size="14.00">Head</text>
<text xml:space="preserve" text-anchor="middle" x="501" y="-307.2" font-family="Times,serif" font-size="14.00">Sample</text>
</g>
<!-- p1_sampler -->
<g id="node9" class="node">
<title>p1_sampler</title>
<path fill="#4fc3f7" stroke="black" d="M726.38,-323C726.38,-323 683.38,-323 683.38,-323 677.38,-323 671.38,-317 671.38,-311 671.38,-311 671.38,-297 671.38,-297 671.38,-291 677.38,-285 683.38,-285 683.38,-285 726.38,-285 726.38,-285 732.38,-285 738.38,-291 738.38,-297 738.38,-297 738.38,-311 738.38,-311 738.38,-317 732.38,-323 726.38,-323"/>
<text xml:space="preserve" text-anchor="middle" x="704.88" y="-305.7" font-family="Helvetica,sans-Serif" font-size="14.00">Sampler</text>
<text xml:space="preserve" text-anchor="middle" x="704.88" y="-290.7" font-family="Helvetica,sans-Serif" font-size="14.00">3+</text>
</g>
<!-- p1_kafka_at&#45;&gt;p1_sampler -->
<g id="edge4" class="edge">
<title>p1_kafka_at&#45;&gt;p1_sampler</title>
<path fill="none" stroke="black" d="M626.61,-304C637.11,-304 648.77,-304 659.78,-304"/>
<polygon fill="black" stroke="black" points="659.44,-307.5 669.44,-304 659.44,-300.5 659.44,-307.5"/>
</g>
<!-- p1_dist -->
<g id="node10" class="node">
<title>p1_dist</title>
<path fill="#81c784" stroke="black" d="M894.62,-323C894.62,-323 841.12,-323 841.12,-323 835.12,-323 829.12,-317 829.12,-311 829.12,-311 829.12,-297 829.12,-297 829.12,-291 835.12,-285 841.12,-285 841.12,-285 894.62,-285 894.62,-285 900.62,-285 906.62,-291 906.62,-297 906.62,-297 906.62,-311 906.62,-311 906.62,-317 900.62,-323 894.62,-323"/>
<text xml:space="preserve" text-anchor="middle" x="867.88" y="-305.7" font-family="Helvetica,sans-Serif" font-size="14.00">Distributor</text>
<text xml:space="preserve" text-anchor="middle" x="867.88" y="-290.7" font-family="Helvetica,sans-Serif" font-size="14.00">5</text>
</g>
<!-- p1_sampler&#45;&gt;p1_dist -->
<g id="edge5" class="edge">
<title>p1_sampler&#45;&gt;p1_dist</title>
<path fill="none" stroke="black" d="M738.84,-304C761.5,-304 791.99,-304 817.52,-304"/>
<polygon fill="black" stroke="black" points="817.35,-307.5 827.35,-304 817.35,-300.5 817.35,-307.5"/>
<text xml:space="preserve" text-anchor="middle" x="781.88" y="-323.7" font-family="Times,serif" font-size="14.00">Tail</text>
<text xml:space="preserve" text-anchor="middle" x="781.88" y="-307.2" font-family="Times,serif" font-size="14.00">Sample</text>
</g>
<!-- p1_kafka -->
<g id="node11" class="node">
<title>p1_kafka</title>
<path fill="#ffecb3" stroke="black" d="M1013.62,-325.38C1013.62,-328 1000.29,-330.12 983.88,-330.12 967.46,-330.12 954.12,-328 954.12,-325.38 954.12,-325.38 954.12,-282.62 954.12,-282.62 954.12,-280 967.46,-277.88 983.88,-277.88 1000.29,-277.88 1013.62,-280 1013.62,-282.62 1013.62,-282.62 1013.62,-325.38 1013.62,-325.38"/>
<path fill="none" stroke="black" d="M1013.62,-325.38C1013.62,-322.75 1000.29,-320.62 983.88,-320.62 967.46,-320.62 954.12,-322.75 954.12,-325.38"/>
<text xml:space="preserve" text-anchor="middle" x="983.88" y="-305.7" font-family="Helvetica,sans-Serif" font-size="14.00">Kafka</text>
<text xml:space="preserve" text-anchor="middle" x="983.88" y="-290.7" font-family="Helvetica,sans-Serif" font-size="14.00">N parts</text>
</g>
<!-- p1_dist&#45;&gt;p1_kafka -->
<g id="edge6" class="edge">
<title>p1_dist&#45;&gt;p1_kafka</title>
<path fill="none" stroke="black" d="M906.84,-304C918.3,-304 930.93,-304 942.54,-304"/>
<polygon fill="black" stroke="black" points="942.22,-307.5 952.22,-304 942.22,-300.5 942.22,-307.5"/>
</g>
<!-- p1_bb -->
<g id="node12" class="node">
<title>p1_bb</title>
<path fill="#ffe0b2" stroke="black" d="M1135.25,-299C1135.25,-299 1064.5,-299 1064.5,-299 1058.5,-299 1052.5,-293 1052.5,-287 1052.5,-287 1052.5,-273 1052.5,-273 1052.5,-267 1058.5,-261 1064.5,-261 1064.5,-261 1135.25,-261 1135.25,-261 1141.25,-261 1147.25,-267 1147.25,-273 1147.25,-273 1147.25,-287 1147.25,-287 1147.25,-293 1141.25,-299 1135.25,-299"/>
<text xml:space="preserve" text-anchor="middle" x="1099.88" y="-281.7" font-family="Helvetica,sans-Serif" font-size="14.00">Block Builder</text>
<text xml:space="preserve" text-anchor="middle" x="1099.88" y="-266.7" font-family="Helvetica,sans-Serif" font-size="14.00">N</text>
</g>
<!-- p1_kafka&#45;&gt;p1_bb -->
<g id="edge7" class="edge">
<title>p1_kafka&#45;&gt;p1_bb</title>
<path fill="none" stroke="black" d="M1013.94,-297.88C1022.28,-296.12 1031.69,-294.14 1041.12,-292.16"/>
<polygon fill="black" stroke="black" points="1041.6,-295.63 1050.67,-290.15 1040.16,-288.78 1041.6,-295.63"/>
</g>
<!-- p1_ls -->
<g id="node13" class="node">
<title>p1_ls</title>
<path fill="#ce93d8" stroke="black" d="M1126.25,-355C1126.25,-355 1073.5,-355 1073.5,-355 1067.5,-355 1061.5,-349 1061.5,-343 1061.5,-343 1061.5,-329 1061.5,-329 1061.5,-323 1067.5,-317 1073.5,-317 1073.5,-317 1126.25,-317 1126.25,-317 1132.25,-317 1138.25,-323 1138.25,-329 1138.25,-329 1138.25,-343 1138.25,-343 1138.25,-349 1132.25,-355 1126.25,-355"/>
<text xml:space="preserve" text-anchor="middle" x="1099.88" y="-337.7" font-family="Helvetica,sans-Serif" font-size="14.00">Live Store</text>
<text xml:space="preserve" text-anchor="middle" x="1099.88" y="-322.7" font-family="Helvetica,sans-Serif" font-size="14.00">2×N</text>
</g>
<!-- p1_kafka&#45;&gt;p1_ls -->
<g id="edge8" class="edge">
<title>p1_kafka&#45;&gt;p1_ls</title>
<path fill="none" stroke="black" d="M1013.94,-312.16C1025.06,-315.28 1038.07,-318.93 1050.51,-322.42"/>
<polygon fill="black" stroke="black" points="1049.21,-325.7 1059.79,-325.03 1051.11,-318.96 1049.21,-325.7"/>
</g>
<!-- p1_storage -->
<g id="node14" class="node">
<title>p1_storage</title>
<path fill="#b0bec5" stroke="black" d="M1247.5,-294.73C1247.5,-296.53 1233.33,-298 1215.88,-298 1198.42,-298 1184.25,-296.53 1184.25,-294.73 1184.25,-294.73 1184.25,-265.27 1184.25,-265.27 1184.25,-263.47 1198.42,-262 1215.88,-262 1233.33,-262 1247.5,-263.47 1247.5,-265.27 1247.5,-265.27 1247.5,-294.73 1247.5,-294.73"/>
<path fill="none" stroke="black" d="M1247.5,-294.73C1247.5,-292.92 1233.33,-291.45 1215.88,-291.45 1198.42,-291.45 1184.25,-292.92 1184.25,-294.73"/>
<text xml:space="preserve" text-anchor="middle" x="1215.88" y="-274.2" font-family="Helvetica,sans-Serif" font-size="14.00">Storage</text>
</g>
<!-- p1_bb&#45;&gt;p1_storage -->
<g id="edge9" class="edge">
<title>p1_bb&#45;&gt;p1_storage</title>
<path fill="none" stroke="black" d="M1147.57,-280C1155.93,-280 1164.6,-280 1172.81,-280"/>
<polygon fill="black" stroke="black" points="1172.54,-283.5 1182.54,-280 1172.54,-276.5 1172.54,-283.5"/>
</g>
<!-- p2_app -->
<g id="node15" class="node">
<title>p2_app</title>
<path fill="#e3f2fd" stroke="black" d="M97.5,-463C97.5,-463 67.5,-463 67.5,-463 61.5,-463 55.5,-457 55.5,-451 55.5,-451 55.5,-439 55.5,-439 55.5,-433 61.5,-427 67.5,-427 67.5,-427 97.5,-427 97.5,-427 103.5,-427 109.5,-433 109.5,-439 109.5,-439 109.5,-451 109.5,-451 109.5,-457 103.5,-463 97.5,-463"/>
<text xml:space="preserve" text-anchor="middle" x="82.5" y="-439.2" font-family="Helvetica,sans-Serif" font-size="14.00">App</text>
</g>
<!-- p2_gw -->
<g id="node16" class="node">
<title>p2_gw</title>
<path fill="#a5d6a7" stroke="black" d="M266.88,-464C266.88,-464 220.88,-464 220.88,-464 214.88,-464 208.88,-458 208.88,-452 208.88,-452 208.88,-438 208.88,-438 208.88,-432 214.88,-426 220.88,-426 220.88,-426 266.88,-426 266.88,-426 272.88,-426 278.88,-432 278.88,-438 278.88,-438 278.88,-452 278.88,-452 278.88,-458 272.88,-464 266.88,-464"/>
<text xml:space="preserve" text-anchor="middle" x="243.88" y="-446.7" font-family="Helvetica,sans-Serif" font-size="14.00">Gateway</text>
<text xml:space="preserve" text-anchor="middle" x="243.88" y="-431.7" font-family="Helvetica,sans-Serif" font-size="14.00">3+</text>
</g>
<!-- p2_app&#45;&gt;p2_gw -->
<g id="edge10" class="edge">
<title>p2_app&#45;&gt;p2_gw</title>
<path fill="none" stroke="black" d="M109.82,-445C133.52,-445 168.87,-445 197.19,-445"/>
<polygon fill="black" stroke="black" points="196.92,-448.5 206.92,-445 196.92,-441.5 196.92,-448.5"/>
</g>
<!-- p2_sgw -->
<g id="node17" class="node">
<title>p2_sgw</title>
<path fill="#b0bec5" stroke="black" d="M430.12,-464C430.12,-464 358.62,-464 358.62,-464 352.62,-464 346.62,-458 346.62,-452 346.62,-452 346.62,-438 346.62,-438 346.62,-432 352.62,-426 358.62,-426 358.62,-426 430.12,-426 430.12,-426 436.12,-426 442.12,-432 442.12,-438 442.12,-438 442.12,-452 442.12,-452 442.12,-458 436.12,-464 430.12,-464"/>
<text xml:space="preserve" text-anchor="middle" x="394.38" y="-446.7" font-family="Helvetica,sans-Serif" font-size="14.00">Sampler GW</text>
<text xml:space="preserve" text-anchor="middle" x="394.38" y="-431.7" font-family="Helvetica,sans-Serif" font-size="14.00">3+</text>
</g>
<!-- p2_gw&#45;&gt;p2_sgw -->
<g id="edge11" class="edge">
<title>p2_gw&#45;&gt;p2_sgw</title>
<path fill="none" stroke="black" d="M279.32,-445C295.78,-445 315.95,-445 334.72,-445"/>
<polygon fill="black" stroke="black" points="334.67,-448.5 344.67,-445 334.67,-441.5 334.67,-448.5"/>
</g>
<!-- p2_dist -->
<g id="node18" class="node">
<title>p2_dist</title>
<path fill="#81c784" stroke="black" d="M617.5,-464C617.5,-464 564,-464 564,-464 558,-464 552,-458 552,-452 552,-452 552,-438 552,-438 552,-432 558,-426 564,-426 564,-426 617.5,-426 617.5,-426 623.5,-426 629.5,-432 629.5,-438 629.5,-438 629.5,-452 629.5,-452 629.5,-458 623.5,-464 617.5,-464"/>
<text xml:space="preserve" text-anchor="middle" x="590.75" y="-446.7" font-family="Helvetica,sans-Serif" font-size="14.00">Distributor</text>
<text xml:space="preserve" text-anchor="middle" x="590.75" y="-431.7" font-family="Helvetica,sans-Serif" font-size="14.00">5</text>
</g>
<!-- p2_sgw&#45;&gt;p2_dist -->
<g id="edge12" class="edge">
<title>p2_sgw&#45;&gt;p2_dist</title>
<path fill="none" stroke="black" stroke-dasharray="5,2" d="M442.43,-445C471.99,-445 510.06,-445 540.1,-445"/>
<polygon fill="black" stroke="black" points="540.09,-448.5 550.09,-445 540.09,-441.5 540.09,-448.5"/>
<text xml:space="preserve" text-anchor="middle" x="501" y="-464.7" font-family="Times,serif" font-size="14.00">Proxy</text>
<text xml:space="preserve" text-anchor="middle" x="501" y="-448.2" font-family="Times,serif" font-size="14.00">Passthrough</text>
</g>
<!-- p2_kafka -->
<g id="node19" class="node">
<title>p2_kafka</title>
<path fill="#ffecb3" stroke="black" d="M734.62,-466.38C734.62,-469 721.29,-471.12 704.88,-471.12 688.46,-471.12 675.12,-469 675.12,-466.38 675.12,-466.38 675.12,-423.62 675.12,-423.62 675.12,-421 688.46,-418.88 704.88,-418.88 721.29,-418.88 734.62,-421 734.62,-423.62 734.62,-423.62 734.62,-466.38 734.62,-466.38"/>
<path fill="none" stroke="black" d="M734.62,-466.38C734.62,-463.75 721.29,-461.62 704.88,-461.62 688.46,-461.62 675.12,-463.75 675.12,-466.38"/>
<text xml:space="preserve" text-anchor="middle" x="704.88" y="-446.7" font-family="Helvetica,sans-Serif" font-size="14.00">Kafka</text>
<text xml:space="preserve" text-anchor="middle" x="704.88" y="-431.7" font-family="Helvetica,sans-Serif" font-size="14.00">N parts</text>
</g>
<!-- p2_dist&#45;&gt;p2_kafka -->
<g id="edge13" class="edge">
<title>p2_dist&#45;&gt;p2_kafka</title>
<path fill="none" stroke="black" d="M629.71,-445C640.53,-445 652.37,-445 663.34,-445"/>
<polygon fill="black" stroke="black" points="663.3,-448.5 673.3,-445 663.3,-441.5 663.3,-448.5"/>
</g>
<!-- p2_bb -->
<g id="node20" class="node">
<title>p2_bb</title>
<path fill="#ffe0b2" stroke="black" d="M903.25,-440C903.25,-440 832.5,-440 832.5,-440 826.5,-440 820.5,-434 820.5,-428 820.5,-428 820.5,-414 820.5,-414 820.5,-408 826.5,-402 832.5,-402 832.5,-402 903.25,-402 903.25,-402 909.25,-402 915.25,-408 915.25,-414 915.25,-414 915.25,-428 915.25,-428 915.25,-434 909.25,-440 903.25,-440"/>
<text xml:space="preserve" text-anchor="middle" x="867.88" y="-422.7" font-family="Helvetica,sans-Serif" font-size="14.00">Block Builder</text>
<text xml:space="preserve" text-anchor="middle" x="867.88" y="-407.7" font-family="Helvetica,sans-Serif" font-size="14.00">N</text>
</g>
<!-- p2_kafka&#45;&gt;p2_bb -->
<g id="edge14" class="edge">
<title>p2_kafka&#45;&gt;p2_bb</title>
<path fill="none" stroke="black" d="M735.03,-440.65C755.62,-437.58 783.9,-433.37 808.99,-429.63"/>
<polygon fill="black" stroke="black" points="809.38,-433.11 818.75,-428.17 808.35,-426.19 809.38,-433.11"/>
</g>
<!-- p2_ls -->
<g id="node21" class="node">
<title>p2_ls</title>
<path fill="#ce93d8" stroke="black" d="M894.25,-496C894.25,-496 841.5,-496 841.5,-496 835.5,-496 829.5,-490 829.5,-484 829.5,-484 829.5,-470 829.5,-470 829.5,-464 835.5,-458 841.5,-458 841.5,-458 894.25,-458 894.25,-458 900.25,-458 906.25,-464 906.25,-470 906.25,-470 906.25,-484 906.25,-484 906.25,-490 900.25,-496 894.25,-496"/>
<text xml:space="preserve" text-anchor="middle" x="867.88" y="-478.7" font-family="Helvetica,sans-Serif" font-size="14.00">Live Store</text>
<text xml:space="preserve" text-anchor="middle" x="867.88" y="-463.7" font-family="Helvetica,sans-Serif" font-size="14.00">2×N</text>
</g>
<!-- p2_kafka&#45;&gt;p2_ls -->
<g id="edge15" class="edge">
<title>p2_kafka&#45;&gt;p2_ls</title>
<path fill="none" stroke="black" d="M735.03,-450.79C758.1,-455.38 790.84,-461.89 817.91,-467.27"/>
<polygon fill="black" stroke="black" points="817.15,-470.69 827.64,-469.2 818.52,-463.82 817.15,-470.69"/>
</g>
<!-- p2_storage -->
<g id="node22" class="node">
<title>p2_storage</title>
<path fill="#b0bec5" stroke="black" d="M1015.5,-435.73C1015.5,-437.53 1001.33,-439 983.88,-439 966.42,-439 952.25,-437.53 952.25,-435.73 952.25,-435.73 952.25,-406.27 952.25,-406.27 952.25,-404.47 966.42,-403 983.88,-403 1001.33,-403 1015.5,-404.47 1015.5,-406.27 1015.5,-406.27 1015.5,-435.73 1015.5,-435.73"/>
<path fill="none" stroke="black" d="M1015.5,-435.73C1015.5,-433.92 1001.33,-432.45 983.88,-432.45 966.42,-432.45 952.25,-433.92 952.25,-435.73"/>
<text xml:space="preserve" text-anchor="middle" x="983.88" y="-415.2" font-family="Helvetica,sans-Serif" font-size="14.00">Storage</text>
</g>
<!-- p2_bb&#45;&gt;p2_storage -->
<g id="edge16" class="edge">
<title>p2_bb&#45;&gt;p2_storage</title>
<path fill="none" stroke="black" d="M915.57,-421C923.93,-421 932.6,-421 940.81,-421"/>
<polygon fill="black" stroke="black" points="940.54,-424.5 950.54,-421 940.54,-417.5 940.54,-424.5"/>
</g>
<!-- p3_grafana -->
<g id="node23" class="node">
<title>p3_grafana</title>
<path fill="#e3f2fd" stroke="black" d="M103.25,-618C103.25,-618 61.75,-618 61.75,-618 55.75,-618 49.75,-612 49.75,-606 49.75,-606 49.75,-594 49.75,-594 49.75,-588 55.75,-582 61.75,-582 61.75,-582 103.25,-582 103.25,-582 109.25,-582 115.25,-588 115.25,-594 115.25,-594 115.25,-606 115.25,-606 115.25,-612 109.25,-618 103.25,-618"/>
<text xml:space="preserve" text-anchor="middle" x="82.5" y="-594.2" font-family="Helvetica,sans-Serif" font-size="14.00">Grafana</text>
</g>
<!-- p3_gw -->
<g id="node24" class="node">
<title>p3_gw</title>
<path fill="#a5d6a7" stroke="black" d="M266.88,-619C266.88,-619 220.88,-619 220.88,-619 214.88,-619 208.88,-613 208.88,-607 208.88,-607 208.88,-593 208.88,-593 208.88,-587 214.88,-581 220.88,-581 220.88,-581 266.88,-581 266.88,-581 272.88,-581 278.88,-587 278.88,-593 278.88,-593 278.88,-607 278.88,-607 278.88,-613 272.88,-619 266.88,-619"/>
<text xml:space="preserve" text-anchor="middle" x="243.88" y="-601.7" font-family="Helvetica,sans-Serif" font-size="14.00">Gateway</text>
<text xml:space="preserve" text-anchor="middle" x="243.88" y="-586.7" font-family="Helvetica,sans-Serif" font-size="14.00">3+</text>
</g>
<!-- p3_grafana&#45;&gt;p3_gw -->
<g id="edge17" class="edge">
<title>p3_grafana&#45;&gt;p3_gw</title>
<path fill="none" stroke="black" d="M115.37,-600C138.87,-600 171.18,-600 197.39,-600"/>
<polygon fill="black" stroke="black" points="197.07,-603.5 207.07,-600 197.07,-596.5 197.07,-603.5"/>
</g>
<!-- p3_qf -->
<g id="node25" class="node">
<title>p3_qf</title>
<path fill="#ce93d8" stroke="black" d="M438,-619C438,-619 350.75,-619 350.75,-619 344.75,-619 338.75,-613 338.75,-607 338.75,-607 338.75,-593 338.75,-593 338.75,-587 344.75,-581 350.75,-581 350.75,-581 438,-581 438,-581 444,-581 450,-587 450,-593 450,-593 450,-607 450,-607 450,-613 444,-619 438,-619"/>
<text xml:space="preserve" text-anchor="middle" x="394.38" y="-601.7" font-family="Helvetica,sans-Serif" font-size="14.00">Query Frontend</text>
<text xml:space="preserve" text-anchor="middle" x="394.38" y="-586.7" font-family="Helvetica,sans-Serif" font-size="14.00">2</text>
</g>
<!-- p3_gw&#45;&gt;p3_qf -->
<g id="edge18" class="edge">
<title>p3_gw&#45;&gt;p3_qf</title>
<path fill="none" stroke="black" d="M279.32,-600C293.59,-600 310.65,-600 327.16,-600"/>
<polygon fill="black" stroke="black" points="326.96,-603.5 336.96,-600 326.96,-596.5 326.96,-603.5"/>
</g>
<!-- p3_cache -->
<g id="node26" class="node">
<title>p3_cache</title>
<path fill="#e0e0e0" stroke="black" d="M618.25,-590.38C618.25,-593 605.92,-595.12 590.75,-595.12 575.58,-595.12 563.25,-593 563.25,-590.38 563.25,-590.38 563.25,-547.62 563.25,-547.62 563.25,-545 575.58,-542.88 590.75,-542.88 605.92,-542.88 618.25,-545 618.25,-547.62 618.25,-547.62 618.25,-590.38 618.25,-590.38"/>
<path fill="none" stroke="black" d="M618.25,-590.38C618.25,-587.75 605.92,-585.62 590.75,-585.62 575.58,-585.62 563.25,-587.75 563.25,-590.38"/>
<text xml:space="preserve" text-anchor="middle" x="590.75" y="-570.7" font-family="Helvetica,sans-Serif" font-size="14.00">Cache</text>
<text xml:space="preserve" text-anchor="middle" x="590.75" y="-555.7" font-family="Helvetica,sans-Serif" font-size="14.00">3</text>
</g>
<!-- p3_qf&#45;&gt;p3_cache -->
<g id="edge19" class="edge">
<title>p3_qf&#45;&gt;p3_cache</title>
<path fill="none" stroke="black" d="M461.35,-589.48C491.49,-584.67 526.11,-579.15 551.8,-575.05"/>
<polygon fill="black" stroke="black" points="461.11,-585.97 451.79,-591 462.22,-592.88 461.11,-585.97"/>
<polygon fill="black" stroke="black" points="552.11,-578.55 561.44,-573.52 551.01,-571.63 552.11,-578.55"/>
</g>
<!-- p3_q -->
<g id="node27" class="node">
<title>p3_q</title>
<path fill="#ce93d8" stroke="black" d="M609.62,-651C609.62,-651 571.88,-651 571.88,-651 565.88,-651 559.88,-645 559.88,-639 559.88,-639 559.88,-625 559.88,-625 559.88,-619 565.88,-613 571.88,-613 571.88,-613 609.62,-613 609.62,-613 615.62,-613 621.62,-619 621.62,-625 621.62,-625 621.62,-639 621.62,-639 621.62,-645 615.62,-651 609.62,-651"/>
<text xml:space="preserve" text-anchor="middle" x="590.75" y="-633.7" font-family="Helvetica,sans-Serif" font-size="14.00">Querier</text>
<text xml:space="preserve" text-anchor="middle" x="590.75" y="-618.7" font-family="Helvetica,sans-Serif" font-size="14.00">5</text>
</g>
<!-- p3_qf&#45;&gt;p3_q -->
<g id="edge20" class="edge">
<title>p3_qf&#45;&gt;p3_q</title>
<path fill="none" stroke="black" d="M450.3,-609.04C481.38,-614.16 519.62,-620.45 548.19,-625.16"/>
<polygon fill="black" stroke="black" points="547.48,-628.59 557.91,-626.76 548.61,-621.68 547.48,-628.59"/>
</g>
<!-- p3_ls -->
<g id="node28" class="node">
<title>p3_ls</title>
<path fill="#ce93d8" stroke="black" d="M731.25,-596C731.25,-596 678.5,-596 678.5,-596 672.5,-596 666.5,-590 666.5,-584 666.5,-584 666.5,-570 666.5,-570 666.5,-564 672.5,-558 678.5,-558 678.5,-558 731.25,-558 731.25,-558 737.25,-558 743.25,-564 743.25,-570 743.25,-570 743.25,-584 743.25,-584 743.25,-590 737.25,-596 731.25,-596"/>
<text xml:space="preserve" text-anchor="middle" x="704.88" y="-578.7" font-family="Helvetica,sans-Serif" font-size="14.00">Live Store</text>
<text xml:space="preserve" text-anchor="middle" x="704.88" y="-563.7" font-family="Helvetica,sans-Serif" font-size="14.00">2×N</text>
</g>
<!-- p3_q&#45;&gt;p3_ls -->
<g id="edge21" class="edge">
<title>p3_q&#45;&gt;p3_ls</title>
<path fill="none" stroke="black" d="M622.09,-617.12C632.63,-611.95 644.71,-606.02 656.29,-600.34"/>
<polygon fill="black" stroke="black" points="657.5,-603.65 664.94,-596.1 654.42,-597.36 657.5,-603.65"/>
</g>
<!-- p3_storage -->
<g id="node29" class="node">
<title>p3_storage</title>
<path fill="#b0bec5" stroke="black" d="M742.88,-646.73C742.88,-648.53 725.84,-650 704.88,-650 683.91,-650 666.88,-648.53 666.88,-646.73 666.88,-646.73 666.88,-617.27 666.88,-617.27 666.88,-615.47 683.91,-614 704.88,-614 725.84,-614 742.88,-615.47 742.88,-617.27 742.88,-617.27 742.88,-646.73 742.88,-646.73"/>
<path fill="none" stroke="black" d="M742.88,-646.73C742.88,-644.92 725.84,-643.45 704.88,-643.45 683.91,-643.45 666.88,-644.92 666.88,-646.73"/>
<text xml:space="preserve" text-anchor="middle" x="704.88" y="-626.2" font-family="Helvetica,sans-Serif" font-size="14.00">TempoDB</text>
</g>
<!-- p3_q&#45;&gt;p3_storage -->
<g id="edge22" class="edge">
<title>p3_q&#45;&gt;p3_storage</title>
<path fill="none" stroke="black" d="M622.09,-632C632.3,-632 643.95,-632 655.21,-632"/>
<polygon fill="black" stroke="black" points="655.19,-635.5 665.19,-632 655.19,-628.5 655.19,-635.5"/>
</g>
<!-- p4_sched -->
<g id="node30" class="node">
<title>p4_sched</title>
<path fill="#ffcc80" stroke="black" d="M137,-736C137,-736 28,-736 28,-736 22,-736 16,-730 16,-724 16,-724 16,-710 16,-710 16,-704 22,-698 28,-698 28,-698 137,-698 137,-698 143,-698 149,-704 149,-710 149,-710 149,-724 149,-724 149,-730 143,-736 137,-736"/>
<text xml:space="preserve" text-anchor="middle" x="82.5" y="-718.7" font-family="Helvetica,sans-Serif" font-size="14.00">Backend Scheduler</text>
<text xml:space="preserve" text-anchor="middle" x="82.5" y="-703.7" font-family="Helvetica,sans-Serif" font-size="14.00">1 (singleton)</text>
</g>
<!-- p4_worker -->
<g id="node31" class="node">
<title>p4_worker</title>
<path fill="#ffcc80" stroke="black" d="M289.75,-736C289.75,-736 198,-736 198,-736 192,-736 186,-730 186,-724 186,-724 186,-710 186,-710 186,-704 192,-698 198,-698 198,-698 289.75,-698 289.75,-698 295.75,-698 301.75,-704 301.75,-710 301.75,-710 301.75,-724 301.75,-724 301.75,-730 295.75,-736 289.75,-736"/>
<text xml:space="preserve" text-anchor="middle" x="243.88" y="-718.7" font-family="Helvetica,sans-Serif" font-size="14.00">Backend Worker</text>
<text xml:space="preserve" text-anchor="middle" x="243.88" y="-703.7" font-family="Helvetica,sans-Serif" font-size="14.00">2+</text>
</g>
<!-- p4_sched&#45;&gt;p4_worker -->
<g id="edge23" class="edge">
<title>p4_sched&#45;&gt;p4_worker</title>
<path fill="none" stroke="black" d="M149.24,-717C157.56,-717 166.08,-717 174.43,-717"/>
<polygon fill="black" stroke="black" points="174.17,-720.5 184.17,-717 174.17,-713.5 174.17,-720.5"/>
</g>
<!-- p4_comp -->
<g id="node32" class="node">
<title>p4_comp</title>
<path fill="#ffcc80" stroke="black" d="M423.75,-736C423.75,-736 365,-736 365,-736 359,-736 353,-730 353,-724 353,-724 353,-710 353,-710 353,-704 359,-698 365,-698 365,-698 423.75,-698 423.75,-698 429.75,-698 435.75,-704 435.75,-710 435.75,-710 435.75,-724 435.75,-724 435.75,-730 429.75,-736 423.75,-736"/>
<text xml:space="preserve" text-anchor="middle" x="394.38" y="-718.7" font-family="Helvetica,sans-Serif" font-size="14.00">Compactor</text>
<text xml:space="preserve" text-anchor="middle" x="394.38" y="-703.7" font-family="Helvetica,sans-Serif" font-size="14.00">5</text>
</g>
<!-- p4_worker&#45;&gt;p4_comp -->
<g id="edge24" class="edge">
<title>p4_worker&#45;&gt;p4_comp</title>
<path fill="none" stroke="black" d="M301.86,-717C314.89,-717 328.67,-717 341.46,-717"/>
<polygon fill="black" stroke="black" points="341.38,-720.5 351.38,-717 341.38,-713.5 341.38,-720.5"/>
</g>
<!-- p4_storage -->
<g id="node33" class="node">
<title>p4_storage</title>
<path fill="#b0bec5" stroke="black" d="M628.75,-731.73C628.75,-733.53 611.72,-735 590.75,-735 569.78,-735 552.75,-733.53 552.75,-731.73 552.75,-731.73 552.75,-702.27 552.75,-702.27 552.75,-700.47 569.78,-699 590.75,-699 611.72,-699 628.75,-700.47 628.75,-702.27 628.75,-702.27 628.75,-731.73 628.75,-731.73"/>
<path fill="none" stroke="black" d="M628.75,-731.73C628.75,-729.92 611.72,-728.45 590.75,-728.45 569.78,-728.45 552.75,-729.92 552.75,-731.73"/>
<text xml:space="preserve" text-anchor="middle" x="590.75" y="-711.2" font-family="Helvetica,sans-Serif" font-size="14.00">TempoDB</text>
</g>
<!-- p4_comp&#45;&gt;p4_storage -->
<g id="edge25" class="edge">
<title>p4_comp&#45;&gt;p4_storage</title>
<path fill="none" stroke="black" d="M436.12,-717C466.66,-717 508.57,-717 540.91,-717"/>
<polygon fill="black" stroke="black" points="540.83,-720.5 550.83,-717 540.83,-713.5 540.83,-720.5"/>
</g>
</g>
</svg>
